# xmcd
#
# Track frame offsets:
#	150
#	11076
#	25265
#	36742
#	53689
#	64709
#	78225
#	88886
#	102247
#	113894
#	124453
#	138842
#
# Disc length: 1995 seconds
# Revision: 0
# Processed by: cddbd v1.5.2PL0 Copyright (c) Steve Scherf et al.
# Submitted via: dBpowerAMP V12.0
#
DISCID=a307c90c
DTITLE=Peter Salata - Saddle The Wind
DYEAR=2014
DGENRE=Country
TTITLE0=Missing You
TTITLE1=When The Apple Blossoms
TTITLE2=The Wallaby Hotel
TTITLE3=For You
TTITLE4=Broken Fences
TTITLE5=Let The Stallion Go
TTITLE6=The Old Ballandean Hall
TTITLE7=Old Love Songs
TTITLE8=The Old Fergie Tractor
TTITLE9=Saddle The Wind
TTITLE10=Australia
TTITLE11=Bits And Pieces
EXTD=
EXTT0=
EXTT1=
EXTT2=
EXTT3=
EXTT4=
EXTT5=
EXTT6=
EXTT7=
EXTT8=
EXTT9=
EXTT10=
EXTT11=
PLAYORDER=
